# 3ds Max Wavefront OBJ Exporter v0.97b - (c)2007 guruware
# File Created: 09.06.2024 14:15:49

mtllib cushion.mtl

#
# object ChamferBox001
#

v  -1.0106 1.1489 -1.0106
v  -1.0106 1.1489 1.0236
v  1.0236 1.1489 1.0236
v  1.0236 1.1489 -1.0106
v  -1.0106 1.1311 -1.0771
v  -1.0438 1.1311 -1.0681
v  -1.0681 1.1311 -1.0438
v  -1.0771 1.1311 -1.0106
v  -1.0771 1.1311 1.0236
v  -1.0681 1.1311 1.0568
v  -1.0438 1.1311 1.0811
v  -1.0106 1.1311 1.0900
v  1.0236 1.1311 1.0900
v  1.0568 1.1311 1.0811
v  1.0811 1.1311 1.0568
v  1.0900 1.1311 1.0236
v  1.0900 1.1311 -1.0106
v  1.0811 1.1311 -1.0438
v  1.0568 1.1311 -1.0681
v  1.0236 1.1311 -1.0771
v  -1.0106 1.0824 -1.1257
v  -1.0681 1.0824 -1.1103
v  -1.1103 1.0824 -1.0681
v  -1.1257 1.0824 -1.0106
v  -1.1257 1.0824 1.0236
v  -1.1103 1.0824 1.0811
v  -1.0681 1.0824 1.1233
v  -1.0106 1.0824 1.1387
v  1.0236 1.0824 1.1387
v  1.0811 1.0824 1.1233
v  1.1233 1.0824 1.0811
v  1.1387 1.0824 1.0236
v  1.1387 1.0824 -1.0106
v  1.1233 1.0824 -1.0681
v  1.0811 1.0824 -1.1103
v  1.0236 1.0824 -1.1257
v  -1.0106 1.0160 -1.1435
v  -1.0771 1.0160 -1.1257
v  -1.1257 1.0160 -1.0771
v  -1.1435 1.0160 -1.0106
v  -1.1435 1.0160 1.0236
v  -1.1257 1.0160 1.0900
v  -1.0771 1.0160 1.1387
v  -1.0106 1.0160 1.1565
v  1.0236 1.0160 1.1565
v  1.0900 1.0160 1.1387
v  1.1387 1.0160 1.0900
v  1.1565 1.0160 1.0236
v  1.1565 1.0160 -1.0106
v  1.1387 1.0160 -1.0771
v  1.0900 1.0160 -1.1257
v  1.0236 1.0160 -1.1435
v  -1.0106 -1.0182 -1.1435
v  -1.0771 -1.0182 -1.1257
v  -1.1257 -1.0182 -1.0771
v  -1.1435 -1.0182 -1.0106
v  -1.1435 -1.0182 1.0236
v  -1.1257 -1.0182 1.0900
v  -1.0771 -1.0182 1.1387
v  -1.0106 -1.0182 1.1565
v  1.0236 -1.0182 1.1565
v  1.0900 -1.0182 1.1387
v  1.1387 -1.0182 1.0900
v  1.1565 -1.0182 1.0236
v  1.1565 -1.0182 -1.0106
v  1.1387 -1.0182 -1.0771
v  1.0900 -1.0182 -1.1257
v  1.0236 -1.0182 -1.1435
v  -1.0106 -1.0846 -1.1257
v  -1.0681 -1.0846 -1.1103
v  -1.1103 -1.0846 -1.0681
v  -1.1257 -1.0846 -1.0106
v  -1.1257 -1.0846 1.0236
v  -1.1103 -1.0846 1.0811
v  -1.0681 -1.0846 1.1233
v  -1.0106 -1.0846 1.1387
v  1.0236 -1.0846 1.1387
v  1.0811 -1.0846 1.1233
v  1.1233 -1.0846 1.0811
v  1.1387 -1.0846 1.0236
v  1.1387 -1.0846 -1.0106
v  1.1233 -1.0846 -1.0681
v  1.0811 -1.0846 -1.1103
v  1.0236 -1.0846 -1.1257
v  -1.0106 -1.1333 -1.0771
v  -1.0438 -1.1333 -1.0681
v  -1.0681 -1.1333 -1.0438
v  -1.0771 -1.1333 -1.0106
v  -1.0771 -1.1333 1.0236
v  -1.0681 -1.1333 1.0568
v  -1.0438 -1.1333 1.0811
v  -1.0106 -1.1333 1.0900
v  1.0236 -1.1333 1.0900
v  1.0568 -1.1333 1.0811
v  1.0811 -1.1333 1.0568
v  1.0900 -1.1333 1.0236
v  1.0900 -1.1333 -1.0106
v  1.0811 -1.1333 -1.0438
v  1.0568 -1.1333 -1.0681
v  1.0236 -1.1333 -1.0771
v  -1.0106 -1.1511 -1.0106
v  -1.0106 -1.1511 1.0236
v  1.0236 -1.1511 1.0236
v  1.0236 -1.1511 -1.0106
# 104 vertices

vn -0.1087 0.9881 -0.1087
vn -0.1087 0.9881 0.1087
vn 0.1087 0.9881 0.1087
vn 0.1087 0.9881 -0.1087
vn -0.0698 0.8549 -0.5140
vn -0.2654 0.8474 -0.4598
vn -0.4598 0.8474 -0.2654
vn -0.5140 0.8549 -0.0698
vn -0.5140 0.8549 0.0698
vn -0.4598 0.8474 0.2654
vn -0.2654 0.8474 0.4598
vn -0.0698 0.8549 0.5140
vn 0.0698 0.8549 0.5140
vn 0.2654 0.8474 0.4598
vn 0.4598 0.8474 0.2654
vn 0.5140 0.8549 0.0698
vn 0.5140 0.8549 -0.0698
vn 0.4598 0.8474 -0.2654
vn 0.2654 0.8474 -0.4598
vn 0.0698 0.8549 -0.5140
vn -0.1129 0.4883 -0.8653
vn -0.4380 0.4823 -0.7586
vn -0.7586 0.4823 -0.4380
vn -0.8653 0.4883 -0.1129
vn -0.8653 0.4883 0.1129
vn -0.7586 0.4823 0.4380
vn -0.4380 0.4823 0.7586
vn -0.1129 0.4883 0.8653
vn 0.1129 0.4883 0.8653
vn 0.4380 0.4823 0.7586
vn 0.7586 0.4823 0.4380
vn 0.8653 0.4883 0.1129
vn 0.8653 0.4883 -0.1129
vn 0.7586 0.4823 -0.4380
vn 0.4380 0.4823 -0.7586
vn 0.1129 0.4883 -0.8653
vn -0.1281 0.1281 -0.9834
vn -0.4959 0.1278 -0.8589
vn -0.8589 0.1278 -0.4959
vn -0.9834 0.1281 -0.1281
vn -0.9834 0.1281 0.1281
vn -0.8589 0.1278 0.4959
vn -0.4959 0.1278 0.8589
vn -0.1281 0.1281 0.9834
vn 0.1281 0.1281 0.9834
vn 0.4959 0.1278 0.8589
vn 0.8589 0.1278 0.4959
vn 0.9834 0.1281 0.1281
vn 0.9834 0.1281 -0.1281
vn 0.8589 0.1278 -0.4959
vn 0.4959 0.1278 -0.8589
vn 0.1281 0.1281 -0.9834
vn -0.1281 -0.1281 -0.9834
vn -0.4959 -0.1278 -0.8589
vn -0.8589 -0.1278 -0.4959
vn -0.9834 -0.1281 -0.1281
vn -0.9834 -0.1281 0.1281
vn -0.8589 -0.1278 0.4959
vn -0.4959 -0.1278 0.8589
vn -0.1281 -0.1281 0.9834
vn 0.1281 -0.1281 0.9834
vn 0.4959 -0.1278 0.8589
vn 0.8589 -0.1278 0.4959
vn 0.9834 -0.1281 0.1281
vn 0.9834 -0.1281 -0.1281
vn 0.8589 -0.1278 -0.4959
vn 0.4959 -0.1278 -0.8589
vn 0.1281 -0.1281 -0.9834
vn -0.1129 -0.4883 -0.8653
vn -0.4380 -0.4823 -0.7586
vn -0.7586 -0.4823 -0.4380
vn -0.8653 -0.4883 -0.1129
vn -0.8653 -0.4883 0.1129
vn -0.7586 -0.4823 0.4380
vn -0.4380 -0.4823 0.7586
vn -0.1129 -0.4883 0.8653
vn 0.1129 -0.4883 0.8653
vn 0.4380 -0.4823 0.7586
vn 0.7586 -0.4823 0.4380
vn 0.8653 -0.4883 0.1129
vn 0.8653 -0.4883 -0.1129
vn 0.7586 -0.4823 -0.4380
vn 0.4380 -0.4823 -0.7586
vn 0.1129 -0.4883 -0.8653
vn -0.0698 -0.8549 -0.5140
vn -0.2654 -0.8474 -0.4598
vn -0.4598 -0.8474 -0.2654
vn -0.5140 -0.8549 -0.0698
vn -0.5140 -0.8549 0.0698
vn -0.4598 -0.8474 0.2654
vn -0.2654 -0.8474 0.4598
vn -0.0698 -0.8549 0.5140
vn 0.0698 -0.8549 0.5140
vn 0.2654 -0.8474 0.4598
vn 0.4598 -0.8474 0.2654
vn 0.5140 -0.8549 0.0698
vn 0.5140 -0.8549 -0.0698
vn 0.4598 -0.8474 -0.2654
vn 0.2654 -0.8474 -0.4598
vn 0.0698 -0.8549 -0.5140
vn -0.1087 -0.9881 -0.1087
vn -0.1087 -0.9881 0.1087
vn 0.1087 -0.9881 0.1087
vn 0.1087 -0.9881 -0.1087
# 104 vertex normals

vt 0.0578 0.9422 1.0000
vt 0.0578 0.0578 1.0000
vt 0.9422 0.0578 1.0000
vt 0.9422 0.9422 1.0000
vt 0.0578 0.9711 0.9923
vt 0.0433 0.9672 0.9923
vt 0.0328 0.9567 0.9923
vt 0.0289 0.9422 0.9923
vt 0.0289 0.0578 0.9923
vt 0.0328 0.0433 0.9923
vt 0.0433 0.0328 0.9923
vt 0.0578 0.0289 0.9923
vt 0.9422 0.0289 0.9923
vt 0.9567 0.0328 0.9923
vt 0.9672 0.0433 0.9923
vt 0.9711 0.0578 0.9923
vt 0.9711 0.9422 0.9923
vt 0.9672 0.9567 0.9923
vt 0.9567 0.9672 0.9923
vt 0.9422 0.9711 0.9923
vt 0.0578 0.9923 0.9711
vt 0.0328 0.9856 0.9711
vt 0.0144 0.9672 0.9711
vt 0.0077 0.9422 0.9711
vt 0.0077 0.0578 0.9711
vt 0.0144 0.0328 0.9711
vt 0.0328 0.0144 0.9711
vt 0.0578 0.0077 0.9711
vt 0.9422 0.0077 0.9711
vt 0.9672 0.0144 0.9711
vt 0.9856 0.0328 0.9711
vt 0.9923 0.0578 0.9711
vt 0.9923 0.9422 0.9711
vt 0.9856 0.9672 0.9711
vt 0.9672 0.9856 0.9711
vt 0.9422 0.9923 0.9711
vt 0.9672 0.9711 0.9856
vt 0.9856 0.9711 0.9672
vt 0.0328 0.9711 0.0144
vt 0.0289 0.9422 0.0077
vt 0.0578 0.9422 0.0000
vt 0.0578 0.9711 0.0077
vt 0.9422 0.9422 0.0000
vt 0.9422 0.9711 0.0077
vt 0.9711 0.9422 0.0077
vt 0.9672 0.9711 0.0144
vt 0.9923 0.9422 0.0289
vt 0.9856 0.9711 0.0328
vt 0.0328 0.9711 0.9856
vt 0.0289 0.0578 0.0077
vt 0.0578 0.0578 0.0000
vt 0.9422 0.0578 0.0000
vt 0.9711 0.0578 0.0077
vt 0.9923 0.0578 0.0289
vt 0.9672 0.0289 0.9856
vt 0.9856 0.0289 0.9672
vt 0.0328 0.0289 0.0144
vt 0.0578 0.0289 0.0077
vt 0.9422 0.0289 0.0077
vt 0.9672 0.0289 0.0144
vt 0.9856 0.0289 0.0328
vt 0.0328 0.0289 0.9856
vt 0.9567 0.0077 0.9672
vt 0.9422 0.9923 0.0289
vt 0.9567 0.9672 0.0077
vt 0.9672 0.9856 0.0289
vt 0.9672 0.9567 0.0077
vt 0.9856 0.9672 0.0289
vt 0.0578 0.0077 0.0289
vt 0.9422 0.0077 0.0289
vt 0.9567 0.0077 0.0328
vt 0.9672 0.0433 0.0077
vt 0.9856 0.0328 0.0289
vt 0.9567 0.0328 0.0077
vt 0.9672 0.0144 0.0289
vt 0.0433 0.0328 0.0077
vt 0.0328 0.0144 0.0289
vt 0.0328 0.0433 0.0077
vt 0.0144 0.0328 0.0289
vt 0.0077 0.0578 0.0289
vt 0.0077 0.9422 0.0289
vt 0.0328 0.9567 0.0077
vt 0.0144 0.9672 0.0289
vt 0.0433 0.9672 0.0077
vt 0.0328 0.9856 0.0289
vt 0.0578 0.9923 0.0289
# 86 texture coords

o ChamferBox001
g ChamferBox001
usemtl Material
s 1
f 1/1/1 2/2/2 3/3/3 
f 1/1/1 3/3/3 4/4/4 
f 1/1/1 5/5/5 6/6/6 
f 1/1/1 6/6/6 7/7/7 
f 1/1/1 7/7/7 8/8/8 
f 1/1/1 8/8/8 9/9/9 
f 1/1/1 9/9/9 2/2/2 
f 2/2/2 9/9/9 10/10/10 
f 2/2/2 10/10/10 11/11/11 
f 2/2/2 11/11/11 12/12/12 
f 2/2/2 12/12/12 13/13/13 
f 2/2/2 13/13/13 3/3/3 
f 3/3/3 13/13/13 14/14/14 
f 3/3/3 14/14/14 15/15/15 
f 3/3/3 15/15/15 16/16/16 
f 3/3/3 16/16/16 17/17/17 
f 3/3/3 17/17/17 4/4/4 
f 4/4/4 17/17/17 18/18/18 
f 4/4/4 18/18/18 19/19/19 
f 4/4/4 19/19/19 20/20/20 
f 4/4/4 20/20/20 5/5/5 
f 4/4/4 5/5/5 1/1/1 
f 5/5/5 21/21/21 22/22/22 
f 5/5/5 22/22/22 6/6/6 
f 6/6/6 22/22/22 23/23/23 
f 6/6/6 23/23/23 7/7/7 
f 7/7/7 23/23/23 24/24/24 
f 7/7/7 24/24/24 8/8/8 
f 8/8/8 24/24/24 25/25/25 
f 8/8/8 25/25/25 9/9/9 
f 9/9/9 25/25/25 26/26/26 
f 9/9/9 26/26/26 10/10/10 
f 10/10/10 26/26/26 27/27/27 
f 10/10/10 27/27/27 11/11/11 
f 11/11/11 27/27/27 28/28/28 
f 11/11/11 28/28/28 12/12/12 
f 12/12/12 28/28/28 29/29/29 
f 12/12/12 29/29/29 13/13/13 
f 13/13/13 29/29/29 30/30/30 
f 13/13/13 30/30/30 14/14/14 
f 14/14/14 30/30/30 31/31/31 
f 14/14/14 31/31/31 15/15/15 
f 15/15/15 31/31/31 32/32/32 
f 15/15/15 32/32/32 16/16/16 
f 16/16/16 32/32/32 33/33/33 
f 16/16/16 33/33/33 17/17/17 
f 17/17/17 33/33/33 34/34/34 
f 17/17/17 34/34/34 18/18/18 
f 18/18/18 34/34/34 35/35/35 
f 18/18/18 35/35/35 19/19/19 
f 19/19/19 35/35/35 36/36/36 
f 19/19/19 36/36/36 20/20/20 
f 20/20/20 36/36/36 21/21/21 
f 20/20/20 21/21/21 5/5/5 
f 21/20/21 37/4/37 38/17/38 
f 21/20/21 38/17/38 22/37/22 
f 22/37/22 38/17/38 39/33/39 
f 22/37/22 39/33/39 23/38/23 
f 23/39/23 39/40/39 40/41/40 
f 23/39/23 40/41/40 24/42/24 
f 24/42/24 40/41/40 41/43/41 
f 24/42/24 41/43/41 25/44/25 
f 25/44/25 41/43/41 42/45/42 
f 25/44/25 42/45/42 26/46/26 
f 26/46/26 42/45/42 43/47/43 
f 26/46/26 43/47/43 27/48/27 
f 27/39/27 43/40/43 44/41/44 
f 27/39/27 44/41/44 28/42/28 
f 28/42/28 44/41/44 45/43/45 
f 28/42/28 45/43/45 29/44/29 
f 29/44/29 45/43/45 46/45/46 
f 29/44/29 46/45/46 30/46/30 
f 30/46/30 46/45/46 47/47/47 
f 30/46/30 47/47/47 31/48/31 
f 31/49/31 47/8/47 48/1/48 
f 31/49/31 48/1/48 32/5/32 
f 32/5/32 48/1/48 49/4/49 
f 32/5/32 49/4/49 33/20/33 
f 33/20/33 49/4/49 50/17/50 
f 33/20/33 50/17/50 34/37/34 
f 34/37/34 50/17/50 51/33/51 
f 34/37/34 51/33/51 35/38/35 
f 35/49/35 51/8/51 52/1/52 
f 35/49/35 52/1/52 36/5/36 
f 36/5/36 52/1/52 37/4/37 
f 36/5/36 37/4/37 21/20/21 
f 37/4/37 53/3/53 54/16/54 
f 37/4/37 54/16/54 38/17/38 
f 38/17/38 54/16/54 55/32/55 
f 38/17/38 55/32/55 39/33/39 
f 39/40/39 55/50/55 56/51/56 
f 39/40/39 56/51/56 40/41/40 
f 40/41/40 56/51/56 57/52/57 
f 40/41/40 57/52/57 41/43/41 
f 41/43/41 57/52/57 58/53/58 
f 41/43/41 58/53/58 42/45/42 
f 42/45/42 58/53/58 59/54/59 
f 42/45/42 59/54/59 43/47/43 
f 43/40/43 59/50/59 60/51/60 
f 43/40/43 60/51/60 44/41/44 
f 44/41/44 60/51/60 61/52/61 
f 44/41/44 61/52/61 45/43/45 
f 45/43/45 61/52/61 62/53/62 
f 45/43/45 62/53/62 46/45/46 
f 46/45/46 62/53/62 63/54/63 
f 46/45/46 63/54/63 47/47/47 
f 47/8/47 63/9/63 64/2/64 
f 47/8/47 64/2/64 48/1/48 
f 48/1/48 64/2/64 65/3/65 
f 48/1/48 65/3/65 49/4/49 
f 49/4/49 65/3/65 66/16/66 
f 49/4/49 66/16/66 50/17/50 
f 50/17/50 66/16/66 67/32/67 
f 50/17/50 67/32/67 51/33/51 
f 51/8/51 67/9/67 68/2/68 
f 51/8/51 68/2/68 52/1/52 
f 52/1/52 68/2/68 53/3/53 
f 52/1/52 53/3/53 37/4/37 
f 53/3/53 69/13/69 70/55/70 
f 53/3/53 70/55/70 54/16/54 
f 54/16/54 70/55/70 71/56/71 
f 54/16/54 71/56/71 55/32/55 
f 55/50/55 71/57/71 72/58/72 
f 55/50/55 72/58/72 56/51/56 
f 56/51/56 72/58/72 73/59/73 
f 56/51/56 73/59/73 57/52/57 
f 57/52/57 73/59/73 74/60/74 
f 57/52/57 74/60/74 58/53/58 
f 58/53/58 74/60/74 75/61/75 
f 58/53/58 75/61/75 59/54/59 
f 59/50/59 75/57/75 76/58/76 
f 59/50/59 76/58/76 60/51/60 
f 60/51/60 76/58/76 77/59/77 
f 60/51/60 77/59/77 61/52/61 
f 61/52/61 77/59/77 78/60/78 
f 61/52/61 78/60/78 62/53/62 
f 62/53/62 78/60/78 79/61/79 
f 62/53/62 79/61/79 63/54/63 
f 63/9/63 79/62/79 80/12/80 
f 63/9/63 80/12/80 64/2/64 
f 64/2/64 80/12/80 81/13/81 
f 64/2/64 81/13/81 65/3/65 
f 65/3/65 81/13/81 82/55/82 
f 65/3/65 82/55/82 66/16/66 
f 66/16/66 82/55/82 83/56/83 
f 66/16/66 83/56/83 67/32/67 
f 67/9/67 83/62/83 84/12/84 
f 67/9/67 84/12/84 68/2/68 
f 68/2/68 84/12/84 69/13/69 
f 68/2/68 69/13/69 53/3/53 
f 69/13/69 85/29/85 86/63/86 
f 69/64/69 86/65/86 70/66/70 
f 70/66/70 86/65/86 87/67/87 
f 70/66/70 87/67/87 71/68/71 
f 71/68/71 87/67/87 88/45/88 
f 71/68/71 88/45/88 72/47/72 
f 72/58/72 88/69/88 89/70/89 
f 72/58/72 89/70/89 73/59/73 
f 73/59/73 89/70/89 90/71/90 
f 73/54/73 90/72/90 74/73/74 
f 74/73/74 90/72/90 91/74/91 
f 74/73/74 91/74/91 75/75/75 
f 75/75/75 91/74/91 92/59/92 
f 75/75/75 92/59/92 76/70/76 
f 76/58/76 92/69/92 93/70/93 
f 76/58/76 93/70/93 77/59/77 
f 77/59/77 93/70/93 94/71/94 
f 77/69/77 94/76/94 78/77/78 
f 78/77/78 94/76/94 95/78/95 
f 78/77/78 95/78/95 79/79/79 
f 79/79/79 95/78/95 96/50/96 
f 79/79/79 96/50/96 80/80/80 
f 80/12/80 96/28/96 97/29/97 
f 80/12/80 97/29/97 81/13/81 
f 81/13/81 97/29/97 98/63/98 
f 81/81/81 98/82/98 82/83/82 
f 82/83/82 98/82/98 99/84/99 
f 82/83/82 99/84/99 83/85/83 
f 83/85/83 99/84/99 100/42/100 
f 83/85/83 100/42/100 84/86/84 
f 84/12/84 100/28/100 85/29/85 
f 84/12/84 85/29/85 69/13/69 
f 85/44/85 101/43/101 86/65/86 
f 86/65/86 101/43/101 87/67/87 
f 87/67/87 101/43/101 88/45/88 
f 88/45/88 101/43/101 102/52/102 
f 88/45/88 102/52/102 89/53/89 
f 89/53/89 102/52/102 90/72/90 
f 90/72/90 102/52/102 91/74/91 
f 91/74/91 102/52/102 92/59/92 
f 92/59/92 102/52/102 103/51/103 
f 92/59/92 103/51/103 93/58/93 
f 93/58/93 103/51/103 94/76/94 
f 94/76/94 103/51/103 95/78/95 
f 95/78/95 103/51/103 96/50/96 
f 96/50/96 103/51/103 104/41/104 
f 96/50/96 104/41/104 97/40/97 
f 97/40/97 104/41/104 98/82/98 
f 98/82/98 104/41/104 99/84/99 
f 99/84/99 104/41/104 100/42/100 
f 100/42/100 104/41/104 101/43/101 
f 100/42/100 101/43/101 85/44/85 
f 104/41/104 103/51/103 102/52/102 
f 104/41/104 102/52/102 101/43/101 
# 204 faces

